<?xml version="1.0" encoding="UTF-8" standalone="no"?>
<!-- Created with Inkscape (http://www.inkscape.org/) -->

<svg
   width="200"
   height="269"
   viewBox="0 0 52.916666 71.172915"
   version="1.1"
   id="svg1"
   xml:space="preserve"
   sodipodi:docname="dragon-footer.svg"
   inkscape:version="1.4.3 (0d15f75042, 2025-12-25)"
   xmlns:inkscape="http://www.inkscape.org/namespaces/inkscape"
   xmlns:sodipodi="http://sodipodi.sourceforge.net/DTD/sodipodi-0.dtd"
   xmlns="http://www.w3.org/2000/svg"
   xmlns:svg="http://www.w3.org/2000/svg"><sodipodi:namedview
     id="namedview1"
     pagecolor="#ffffff"
     bordercolor="#000000"
     borderopacity="0.25"
     inkscape:showpageshadow="2"
     inkscape:pageopacity="0.0"
     inkscape:pagecheckerboard="0"
     inkscape:deskcolor="#d1d1d1"
     inkscape:zoom="0.78531599"
     inkscape:cx="12.733728"
     inkscape:cy="243.85089"
     inkscape:window-width="1888"
     inkscape:window-height="1048"
     inkscape:window-x="0"
     inkscape:window-y="0"
     inkscape:window-maximized="1"
     inkscape:current-layer="svg1" /><defs
     id="defs1" /><g
     id="g11-0-3"
     transform="matrix(9.2743675,0,0,9.3474508,-2620.7925,8.711219)"><path
       style="fill:#fff2f2;fill-opacity:1;stroke:none;stroke-width:0.0998369;paint-order:stroke fill markers"
       d="m 283.36057,2.9416323 -0.27137,-0.05538 -0.20491,-0.188294 -0.0388,-0.08861 0.14399,0.01107 -0.16615,-0.221522 -0.12737,-0.243674 0.27136,0.08861 -0.0665,-0.193832 -0.0775,-0.25475 -0.0831,-0.37105 v -0.310131 l 0.13846,0.132913 0.0831,0.215984 0.11629,0.276903 0.18276,0.276903 c 0,0 0.18276,0.232598 0.18276,0.25475 0,0.02215 0.0831,0.155065 0.0831,0.155065 l -0.0831,0.293517 z"
       id="path10-6-5" /><path
       style="fill:#fff2f2;fill-opacity:1;stroke:none;stroke-width:0.0998369;paint-order:stroke fill markers"
       d="m 287.55841,2.9250183 0.29352,-0.07753 0.22706,-0.204908 c 0,0 -0.22706,0.01107 -0.22153,-0.01108 0.006,-0.02215 0.22706,-0.276903 0.22706,-0.276903 l 0.0775,-0.166141 -0.26029,0.07753 0.20491,-0.719947 c 0,0 0.0277,-0.437505 0,-0.431968 -0.0277,0.0055 -0.16615,0.321207 -0.16615,0.321207 l -0.23813,0.498425 -0.3046,0.39874 -0.0332,0.105223 z"
       id="path9-2-6" /><path
       style="fill:#fff2f2;fill-opacity:1;stroke:none;stroke-width:0.0998369;paint-order:stroke fill markers"
       d="m 285.43734,5.5389788 0.4375,-0.09968 0.37105,-0.221522 0.14953,-0.177218 0.48181,-0.3212075 0.20491,-0.221521 0.4375,-0.199371 0.45966,-0.437506 0.16061,-0.232598 -0.20491,-0.06646 -0.17168,-0.116299 c 0,0 0.24367,-0.07199 0.21598,-0.05538 -0.0277,0.01662 -0.24921,-0.160603 -0.24921,-0.160603 l -0.19383,-0.271365 -0.14399,-0.443044 -0.0831,-0.387664 -0.28798,-0.443044 c 0,0 -0.0166,-0.08307 -0.0166,-0.110761 0,-0.02769 0.10522,-0.67010396 0.10522,-0.67010396 0,0 0.21598,-0.581496 0.21598,-0.609186 0,-0.02769 0.29352,-0.564881 0.29352,-0.564881 l 0.2326,-0.443044 c 0,0 -0.29352,0.243674 -0.31567,0.25475 -0.0222,0.01107 -0.64242,0.719947 -0.64242,0.719947 l -0.40981,0.48181 -0.0997,-0.01661 -0.25475,-0.09969 0.12738,-0.204908 0.37658,-0.19937 -0.34889,-0.127375 -0.45966,0.01107 -0.36551,0.166142 0.1163,-0.326745 c 0,0 0.31567,-0.265827 0.26582,-0.260289 -0.0498,0.0055 -0.34336,0.116299 -0.34336,0.116299 l -0.37658,0.193832 -0.32121,0.476273 -0.11076,-0.321207 -0.15507,0.188293 -0.0388,0.293517 -0.0498,0.177218 -0.80302,-0.930393 -0.54827,-0.564881 0.072,0.265826 0.29905,0.465196 0.22152,0.54273 0.11076,0.52611396 0.0831,0.531654 -0.31013,0.559343 -0.0775,0.315668 -0.18275,0.492887 -0.40428,0.387664 0.23813,0.03323 -0.37105,0.193832 v 0.138452 l 0.63688,0.542729 0.40982,0.204908 0.33782,0.354435 0.34335,0.1993705 0.24368,0.204908 0.27136,0.182755 z"
       id="path7-6-2" /><path
       style="fill:#fff2f2;fill-opacity:1;stroke:none;stroke-width:0.0998369;paint-order:stroke fill markers"
       d="m 283.98366,4.7306703 0.0494,0.3041045 0.004,0.357322 -0.0342,0.2927 -0.10264,0.300303 0.20147,0.174859 0.41814,0.220475 0.53599,0.193866 0.37632,0.07603 0.55879,-0.114039 0.51698,-0.243283 0.44855,-0.292699 -0.095,-0.376329 c 0,0 -0.008,-0.437149 -0.008,-0.459957 0,-0.02281 0.0456,-0.4561555 0.0456,-0.4561555 l -0.39533,0.285097 -0.26229,0.1634565 -0.32311,0.231879 -0.38013,0.14825 -0.31171,-0.0152 -0.44475,-0.239482 -0.26229,-0.220475 c 0,0 -0.37633,-0.2394825 -0.39533,-0.2470845 -0.019,-0.0076 -0.14065,-0.08363 -0.14065,-0.08363 z"
       id="path4-1-9" /><path
       style="fill:#ecc4c1;fill-opacity:1;stroke:none;stroke-width:0.0998369;paint-order:stroke fill markers"
       d="m 283.51224,2.3441143 0.14097,-0.375936 0.24279,-0.313279 -0.10965,-0.634391 -0.10181,-0.43859196 -0.20363,-0.501247 -0.22713,-0.407263 -0.18797,-0.35244 -0.0705,-0.07832 -0.14098,0.485583 -0.0705,0.532575 -0.0392,0.665719 0.14881,0.38376696 0.10965,0.281952 0.15664,0.328944 0.18013,0.266287 z"
       id="path2-8-1" /><path
       style="fill:#ecc4c1;fill-opacity:1;stroke:none;stroke-width:0.0998369;paint-order:stroke fill markers"
       d="m 287.36856,2.3586573 -0.14098,-0.375936 -0.24279,-0.313279 0.10965,-0.634391 0.10182,-0.43859196 0.20363,-0.501247 0.22713,-0.407263 0.18796,-0.35244 0.0705,-0.07832 0.14098,0.485584 0.0705,0.532575 0.0392,0.665719 -0.14881,0.38376696 -0.10965,0.281952 -0.15664,0.328943 -0.18014,0.266288 z"
       id="path2-7-7-2" /><path
       id="path19-9-7"
       style="baseline-shift:baseline;display:inline;overflow:visible;opacity:1;vector-effect:none;fill:#000000;fill-opacity:1;stroke-width:0.0305778;paint-order:stroke fill markers;enable-background:accumulate;stop-color:#000000;stop-opacity:1"
       d="m 283.49672,3.5636703 c 0,0 -0.0362,0.0836 -0.0329,0.159232 0.0678,0.555044 0.27558,0.813172 0.49906,1.022485 0.22347,0.209313 0.46731,0.3182155 0.56399,0.3989415 0.36276,0.364839 0.65962,0.413902 0.90053,0.438713 0.007,5.93e-4 0.007,6.27e-4 0.0196,10e-4 0.24094,-0.02481 0.53787,-0.07378 0.90073,-0.438729 0.0967,-0.08073 0.34053,-0.1896285 0.56401,-0.3989415 0.22348,-0.209313 0.43127,-0.467441 0.49906,-1.022485 0.003,-0.07564 -0.0329,-0.159247 -0.0329,-0.159247 0,0 -0.0227,0.06084 -0.0575,0.1738 -0.12264,0.511654 -0.27795,0.736235 -0.48882,0.933744 -0.21087,0.197509 -0.42815,0.296516 -0.5479,0.3965075 l -0.002,0.0015 -0.002,0.0017 c -0.34633,0.349873 -0.6015,0.388286 -0.83781,0.412357 -0.2392,-0.02406 -0.49673,-0.05846 -0.84807,-0.4134 l -0.002,-0.0017 -0.002,-0.0015 c -0.11974,-0.099991 -0.33701,-0.1989835 -0.54788,-0.3964915 -0.21087,-0.197509 -0.36618,-0.422107 -0.48882,-0.93376 -0.0347,-0.112964 -0.0574,-0.173785 -0.0574,-0.173785 z" /><path
       style="baseline-shift:baseline;display:inline;overflow:visible;opacity:1;vector-effect:none;fill:#000000;fill-opacity:1;stroke-width:0.0305778;enable-background:accumulate;stop-color:#000000;stop-opacity:1"
       d="m 283.0442,-0.77725466 -0.0866,0.04975 c 0.40069,0.697147 0.7293,1.08252 0.87446,2.37682696 -0.26405,0.307913 -0.36587,0.623904 -0.39501,0.856059 l 3.1e-4,-0.002 c -0.005,0.03146 -0.0594,0.250697 -0.14584,0.415846 -0.079,0.150932 -0.1808,0.288709 -0.40013,0.411278 l -0.13519,0.07862 0.23498,0.0652 c -0.0816,0.0483 -0.15309,0.06502 -0.27945,0.09564 l -0.0937,0.02157 0.054,0.07237 c 0.27529,0.38349 0.63697,0.710296 1.11812,0.906155 l 0.0376,-0.105636 c -0.43825,-0.178398 -0.76517,-0.459345 -1.02543,-0.805819 0.18917,-0.03236 0.32205,-0.138242 0.38113,-0.17536 0.0591,-0.03712 0.10756,-0.07468 0.10756,-0.07468 l -0.24755,-0.03999 c 0.20495,-0.148434 0.27213,-0.259198 0.34458,-0.39763 0.0947,-0.180933 0.13829,-0.394771 0.14773,-0.451081 l 1.8e-4,-10e-4 1.3e-4,-0.001 c 0.0276,-0.220114 0.12306,-0.524511 0.38556,-0.822256 l 0.0146,-0.01654 -0.002,-0.02192 c -0.14561,-1.32520596 -0.49079,-1.74027996 -0.8897,-2.43434096 z"
       id="path20-2-0" /><path
       style="baseline-shift:baseline;display:inline;overflow:visible;opacity:1;vector-effect:none;fill:#000000;fill-opacity:1;stroke-width:0.0305778;enable-background:accumulate;stop-color:#000000;stop-opacity:1"
       d="m 282.97904,-0.93193566 -0.0277,0.08403 c -0.24301,0.734642 -0.41478,2.12413896 -0.0382,3.02362096 -0.0724,-0.02958 -0.15126,-0.06303 -0.20885,-0.08403 l -0.1198,-0.04372 0.0583,0.113413 c 0.0584,0.113553 0.10328,0.210948 0.15749,0.294849 0.0241,0.03725 0.0515,0.0707 0.0814,0.102125 -0.0266,-0.0025 -0.0366,3.48e-4 -0.0763,-0.0048 l -0.12243,-0.01583 0.077,0.09651 c 0.15506,0.194284 0.34352,0.340819 0.59148,0.342149 l 7e-4,-0.0998 c -0.17231,-9.4e-4 -0.30951,-0.08548 -0.43436,-0.216434 0.0372,0.0022 0.0872,0.0093 0.12213,0.0075 l 0.17618,-0.0093 -0.15492,-0.08445 c -0.0773,-0.04214 -0.12828,-0.09672 -0.17683,-0.171881 -0.0282,-0.04361 -0.0594,-0.108857 -0.0885,-0.166148 0.0566,0.02116 0.10238,0.03547 0.19082,0.07674 l 0.12918,0.06026 -0.0634,-0.127687 c -0.40337,-0.812899 -0.2614,-2.21223796 -0.0303,-2.97614096 0.73139,0.845183 1.41877,1.501738 1.59149,1.98517896 l 0.0442,0.131002 0.11748,-0.06293 c -0.20931,-0.64060696 -0.99187,-1.31459596 -1.73851,-2.18702996 z"
       id="path21-0-9" /><path
       style="baseline-shift:baseline;display:inline;overflow:visible;opacity:1;vector-effect:none;fill:#000000;fill-opacity:1;stroke-width:0.0305778;enable-background:accumulate;stop-color:#000000;stop-opacity:1"
       d="m 282.79237,0.69081834 -0.0985,0.01595 c 0.13055,0.80666996 0.41833,1.33232396 0.78708,1.70692296 l 0.0711,-0.07005 c -0.35433,-0.359956 -0.63171,-0.862133 -0.75967,-1.65281396 z"
       id="path22-23-3" /><path
       id="path1-7-6"
       style="baseline-shift:baseline;display:inline;overflow:visible;opacity:1;vector-effect:none;fill:#000000;fill-opacity:1;stroke-width:0.0293006;paint-order:stroke fill markers;enable-background:accumulate;stop-color:#000000;stop-opacity:1"
       d="m 284.03631,4.6876963 -0.0991,0.01075 c 0.0989,0.7676345 0.05,0.9907755 -0.10648,1.3016125 0.24266,0.189382 0.91083,0.617806 1.60968,0.682158 0.52117,-0.07696 1.10036,-0.303194 1.60352,-0.681199 -0.18997,-0.348239 -0.18499,-0.69237 -0.10648,-1.3016265 l -0.0991,-0.01075 c -0.0586,0.4550655 -0.10675,0.9087155 0.0833,1.2872045 -0.58866,0.419623 -1.02477,0.554567 -1.48088,0.618451 -0.42617,-0.05982 -0.90692,-0.190924 -1.48771,-0.619394 0.19005,-0.378489 0.14196,-0.832139 0.0833,-1.2872045 z" /><path
       id="path8-5-0"
       style="baseline-shift:baseline;display:inline;overflow:visible;opacity:1;vector-effect:none;fill:#000000;fill-opacity:1;stroke-width:0.0305778;paint-order:stroke fill markers;enable-background:accumulate;stop-color:#000000;stop-opacity:1"
       d="m 284.34507,4.2746833 c -0.015,-6.62e-4 -0.0292,0.0029 -0.041,0.01117 -0.0379,0.02662 -0.0385,0.09113 -0.001,0.143967 0.0233,0.03319 0.056,0.05392 0.0865,0.05815 h 1e-5 l 0.0233,0.03322 c 0.0653,0.09293 0.12282,0.233095 0.27132,0.312949 0.14677,0.07893 0.36926,0.08979 0.75185,-0.03479 0.38454,0.125679 0.60785,0.114968 0.75503,0.03582 0.14849,-0.07985 0.20601,-0.220023 0.27131,-0.312949 l 0.0233,-0.03322 h 2e-5 c 0.0305,-0.0042 0.0632,-0.02496 0.0865,-0.05815 0.0371,-0.05283 0.0365,-0.117328 -10e-4,-0.143951 -0.0118,-0.0083 -0.026,-0.01184 -0.041,-0.01119 -0.033,0.0014 -0.0699,0.02314 -0.0949,0.05867 -0.0209,0.02976 -0.0298,0.06322 -0.0269,0.09152 l -0.0273,0.03892 c -0.0748,0.106393 -0.12264,0.221017 -0.23685,0.282437 -0.11174,0.06009 -0.33014,0.06695 -0.69401,-0.05 0,0 -0.009,-0.0027 -0.0138,-0.0045 -0.005,0.0016 -0.005,0.0016 -0.0106,0.0034 -0.36386,0.116943 -0.58226,0.110082 -0.694,0.04999 -0.11422,-0.06142 -0.16209,-0.176043 -0.23685,-0.282436 l -0.0273,-0.03892 c 0.003,-0.02831 -0.006,-0.06176 -0.0269,-0.09152 -0.025,-0.03553 -0.0619,-0.05723 -0.0949,-0.05867 z" /><path
       id="path6-9-6"
       style="baseline-shift:baseline;display:inline;overflow:visible;opacity:1;vector-effect:none;fill:#000000;fill-opacity:1;stroke-width:0.0305778;paint-order:stroke fill markers;enable-background:accumulate;stop-color:#000000;stop-opacity:1"
       d="m 285.99338,-0.39909866 c -0.25108,0.04408 -0.49905,0.09038 -0.72329,0.218172 -0.18445,0.113327 -0.36128,0.222215 -0.45816,0.548169 -0.0355,-0.174893 -0.0309,-0.27876 -0.0174,-0.458764 -0.2875,0.272561 -0.39407,0.525528 -0.36983,0.939972 l 0.12811,0.03167 c -0.0243,-0.26689 0.007,-0.482274 0.12533,-0.665867 2e-5,0.136901 0.0124,0.289417 0.0718,0.450849 l 0.0634,0.172063 0.0326,-0.180422 c 0.0759,-0.42054 0.27801,-0.615975 0.47341,-0.736029 0.13671,-0.08399 0.19805,-0.112924 0.32206,-0.13756 -0.14458,0.159939 -0.19122,0.281055 -0.21698,0.453798 -0.21797,0.140428 -0.30427,0.378893 -0.30653,0.528712 0.13976,-0.28638 0.343,-0.480829 0.55029,-0.553632 0.19596,-0.06882 0.43692,-0.100546 0.8265,0.01994 -0.24782,0.08629 -0.43347,0.280876 -0.52362,0.453635 0.21517,0.0032 0.34472,0.0127 0.48718,0.187471 -0.0757,-0.0125 -0.1237,-0.01082 -0.20147,0.0038 -0.15432,-0.09695 -0.33614,-0.141823 -0.50413,-0.131263 -0.0723,0.0045 -0.26332,0.07618 -0.33808,0.145034 0.80696,-0.190901 1.28087,0.31566596 1.01581,1.02803896 -0.0648,-0.224462 -0.34861,-0.457391 -0.47066,-0.451124 -0.0121,-0.170817 -0.27827,-0.354546 -0.42849,-0.353934 0.17744,0.110737 0.7102,0.522113 0.0847,1.164103 -0.0156,-0.349794 -0.12414,-0.559437 -0.26679,-0.726793 -0.1616,-0.18959 -0.3901,-0.275385 -0.66381,-0.292724 l -0.0158,0.122745 c 0.25516,0.04078 0.46133,0.09016 0.60444,0.246458 0.2178,0.246154 0.21984,0.55858 0.22433,0.870272 0.25901,-0.170781 0.58438,-0.514869 0.50435,-0.887338 0.26132,0.141933 0.36579,0.389772 0.43494,0.569794 0.21812,-0.423934 0.30102,-0.820942 -0.0541,-1.20548896 0.12302,0.0081 0.22848,0.07334 0.33594,0.12743896 -0.11353,-0.25985596 -0.22906,-0.45650396 -0.53615,-0.51663196 0.15403,-0.168895 0.36731,-0.276214 0.58761,-0.349497 -0.0898,-0.086 -0.48581,-0.206132 -0.74234,-0.198371 -0.16516,0.005 -0.30946,0.04196 -0.42253,0.0961 -0.0178,0.0085 -0.035,0.01758 -0.0518,0.02708 0.0829,-0.228587 0.27002,-0.393442 0.43914,-0.559927 z" /><ellipse
       style="display:inline;opacity:1;fill:#a34f1b;fill-opacity:1;stroke:#a45be9;stroke-width:0;stroke-dasharray:none;paint-order:stroke fill markers"
       id="path12-3-22-2"
       cx="284.46207"
       cy="2.9758501"
       rx="0.2293247"
       ry="0.32563317" /><ellipse
       style="opacity:1;fill:#000000;fill-opacity:1;stroke:#a45be9;stroke-width:0;stroke-dasharray:none;paint-order:stroke fill markers"
       id="path12-8-6"
       cx="284.4726"
       cy="2.939147"
       rx="0.1069979"
       ry="0.25223711" /><ellipse
       style="fill:#ffffff;fill-opacity:1;stroke:#a45be9;stroke-width:0;stroke-dasharray:none;paint-order:stroke fill markers"
       id="path12-6-9-1"
       cx="284.3555"
       cy="2.878171"
       rx="0.077719688"
       ry="0.081781745" /><path
       id="path3-7-8"
       style="baseline-shift:baseline;display:inline;overflow:visible;opacity:1;vector-effect:none;fill:#000000;fill-opacity:1;stroke-width:0.0305778;paint-order:stroke fill markers;enable-background:accumulate;stop-color:#000000;stop-opacity:1"
       d="m 284.34304,2.6112023 c -0.13619,1.84e-4 -0.30771,0.05652 -0.44008,0.228253 l 0.0617,0.03367 c 0.0154,0.197149 0.0805,0.331564 0.20329,0.400347 0.13299,0.07448 0.31374,0.06998 0.54834,0.02581 h 2e-5 l 0.0928,0.05026 -0.002,-0.04048 c 0.0302,-0.279585 -0.0654,-0.519286 -0.24069,-0.632756 -0.0657,-0.04255 -0.14177,-0.06521 -0.22348,-0.0651 z m -0.005,0.09712 c 0.0647,-1.83e-4 0.12325,0.01879 0.17422,0.05178 0.11612,0.07516 0.19773,0.234536 0.20048,0.438223 -0.23362,0.04511 -0.39802,0.04297 -0.49604,-0.01193 -0.0966,-0.05409 -0.14899,-0.161492 -0.15524,-0.371272 0.10017,-0.07462 0.19342,-0.106554 0.27658,-0.106803 z" /><path
       id="path5-36-7"
       style="baseline-shift:baseline;display:inline;overflow:visible;opacity:1;vector-effect:none;fill:#73b5de;fill-opacity:1;stroke-width:0.0204039;paint-order:stroke fill markers;enable-background:accumulate;stop-color:#000000;stop-opacity:1"
       d="m 285.43924,2.8372013 c 0,0 -10e-4,1.83e-4 -0.002,4.18e-4 -0.13658,0.03368 -0.34776,0.23874 -0.41836,0.396129 0.15291,-0.124754 0.26287,-0.212746 0.41995,-0.258501 0.15836,0.04556 0.26864,0.133811 0.42231,0.25919 -0.0706,-0.157372 -0.28172,-0.362401 -0.4183,-0.396119 -10e-4,-4.53e-4 -0.004,-0.0011 -0.004,-0.0011 z" /><path
       id="path5-3-1-9"
       style="baseline-shift:baseline;display:inline;overflow:visible;vector-effect:none;fill:#73b5de;fill-opacity:1;stroke-width:0.0221398;paint-order:stroke fill markers;enable-background:accumulate;stop-color:#000000"
       d="m 285.43925,3.3892983 c -0.004,9.75e-4 -0.004,9.4e-4 -0.009,0.0024 -0.15081,0.04372 -0.40659,0.22641 -0.48038,0.392961 0.18493,-0.123063 0.32071,-0.206522 0.48914,-0.25618 0.16961,0.04957 0.30582,0.13325 0.49168,0.256933 -0.0738,-0.166547 -0.32955,-0.349236 -0.48036,-0.392962 0,0 -6e-5,-2.1e-5 -0.0115,-0.0031 z" /><path
       id="path5-3-3-2-2"
       style="baseline-shift:baseline;display:inline;overflow:visible;vector-effect:none;fill:#73b5de;fill-opacity:1;stroke-width:0.0219916;paint-order:stroke fill markers;enable-background:accumulate;stop-color:#000000"
       d="m 285.43939,3.0711093 c -0.003,0.001 -0.003,0.001 -0.008,0.0025 -0.13915,0.04675 -0.37516,0.242108 -0.44324,0.420208 0.17063,-0.131596 0.29592,-0.220843 0.45133,-0.273943 0.15649,0.053 0.28217,0.142489 0.45366,0.274747 -0.0681,-0.178095 -0.30407,-0.373449 -0.44322,-0.420207 0,0 -6e-5,-2.3e-5 -0.0106,-0.0033 z" /><path
       style="fill:#000000;fill-opacity:1;stroke:#a45be9;stroke-width:0;stroke-dasharray:none;paint-order:stroke fill markers"
       d="m 285.13712,4.3268473 c 0.0317,-0.1159 -0.0858,-0.298048 -0.20509,-0.291564 -0.0722,0.008 -0.0715,0.09245 -0.0281,0.114615 0.0959,0.04872 0.14179,-0.0018 0.23325,0.176949 z"
       id="path14-9-0" /><path
       style="baseline-shift:baseline;display:inline;overflow:visible;vector-effect:none;fill:#000000;fill-opacity:1;stroke-width:0.0305778;enable-background:accumulate;stop-color:#000000"
       d="m 287.83037,-0.77621766 0.0866,0.04975 c -0.40068,0.697147 -0.72929,1.082521 -0.87445,2.37682796 0.26405,0.307913 0.36586,0.623903 0.395,0.856059 l -3e-4,-0.002 c 0.005,0.03146 0.0594,0.250698 0.14584,0.415846 0.079,0.150932 0.18079,0.288709 0.40012,0.411278 l 0.13519,0.07862 -0.23498,0.0652 c 0.0816,0.0483 0.1531,0.06502 0.27945,0.09564 l 0.0937,0.02157 -0.0541,0.07237 c -0.27529,0.383491 -0.63697,0.710297 -1.11812,0.906155 l -0.0376,-0.105636 c 0.43825,-0.178398 0.76517,-0.459345 1.02543,-0.805819 -0.18916,-0.03236 -0.32205,-0.138241 -0.38113,-0.17536 -0.0591,-0.03712 -0.10756,-0.07468 -0.10756,-0.07468 l 0.24755,-0.03999 c -0.20494,-0.148435 -0.27213,-0.259199 -0.34458,-0.39763 -0.0947,-0.180934 -0.13829,-0.394771 -0.14773,-0.451081 l -1.8e-4,-10e-4 -1.2e-4,-10e-4 c -0.0276,-0.220115 -0.12307,-0.524512 -0.38557,-0.822257 l -0.0146,-0.01654 0.002,-0.02192 c 0.1456,-1.32520496 0.49079,-1.74027996 0.8897,-2.43433996 z"
       id="path20-5-3-2" /><path
       style="baseline-shift:baseline;display:inline;overflow:visible;vector-effect:none;fill:#000000;fill-opacity:1;stroke-width:0.0305778;enable-background:accumulate;stop-color:#000000"
       d="m 287.89553,-0.93089866 0.0278,0.08403 c 0.243,0.734642 0.41478,2.12413796 0.0382,3.02361996 0.0724,-0.02958 0.15126,-0.06303 0.20885,-0.08403 l 0.1198,-0.04372 -0.0583,0.113413 c -0.0583,0.113552 -0.10328,0.210948 -0.15749,0.294849 -0.0241,0.03725 -0.0515,0.0707 -0.0814,0.102125 0.0266,-0.0025 0.0366,3.48e-4 0.0763,-0.0048 l 0.12243,-0.01583 -0.077,0.09651 c -0.15507,0.194284 -0.34354,0.340819 -0.5915,0.342149 l -6.9e-4,-0.0998 c 0.17231,-9.4e-4 0.30951,-0.08548 0.43436,-0.216434 -0.0372,0.0022 -0.0872,0.0093 -0.12213,0.0075 l -0.17619,-0.0093 0.15492,-0.08445 c 0.0773,-0.04214 0.12828,-0.09672 0.17684,-0.171881 0.0282,-0.04361 0.0593,-0.108857 0.0885,-0.166147 -0.0566,0.02116 -0.10237,0.03547 -0.19081,0.07674 l -0.12918,0.06026 0.0634,-0.127687 c 0.40338,-0.812899 0.2614,-2.21223796 0.0303,-2.97614096 -0.52686,0.608839 -1.03089,1.119795 -1.33614,1.538667 -0.0417,-0.04012 -0.0615,-0.03615 -0.0963,-0.06732 0.3487,-0.475085 0.89214,-0.99093 1.41778,-1.605129 z"
       id="path21-6-1-3" /><path
       style="baseline-shift:baseline;display:inline;overflow:visible;opacity:1;vector-effect:none;fill:#000000;fill-opacity:1;stroke-width:0.0305778;enable-background:accumulate;stop-color:#000000;stop-opacity:1"
       d="m 288.08221,0.69183434 c -0.12795,0.79068196 -0.40539,1.29285796 -0.75972,1.65281396 l 0.0712,0.07005 c 0.36875,-0.3746 0.65653,-0.900193 0.78708,-1.70686296 z"
       id="path22-2-9-7" /><ellipse
       style="display:inline;fill:#a2491a;fill-opacity:1;stroke:#a45be9;stroke-width:0;stroke-dasharray:none;paint-order:stroke fill markers"
       id="path12-3-2-4-5"
       cx="-286.41254"
       cy="2.9768858"
       rx="0.2293247"
       ry="0.32563317"
       transform="scale(-1,1)" /><ellipse
       style="fill:#000000;fill-opacity:1;stroke:#a45be9;stroke-width:0;stroke-dasharray:none;paint-order:stroke fill markers"
       id="path12-7-7-9"
       cx="-286.40204"
       cy="2.9401846"
       rx="0.1069979"
       ry="0.25223711"
       transform="scale(-1,1)" /><ellipse
       style="fill:#ffffff;fill-opacity:1;stroke:#a45be9;stroke-width:0;stroke-dasharray:none;paint-order:stroke fill markers"
       id="path12-6-0-8-2"
       cx="-286.5191"
       cy="2.8792067"
       rx="0.077719688"
       ry="0.081781745"
       transform="scale(-1,1)" /><path
       id="path3-9-4-2"
       style="baseline-shift:baseline;display:inline;overflow:visible;vector-effect:none;fill:#000000;fill-opacity:1;stroke-width:0.0305778;paint-order:stroke fill markers;enable-background:accumulate;stop-color:#000000"
       d="m 286.53154,2.6122393 c 0.13618,1.84e-4 0.3077,0.05652 0.44007,0.228254 l -0.0617,0.03367 c -0.0154,0.19715 -0.0805,0.331565 -0.20329,0.400348 -0.13299,0.07448 -0.31373,0.06998 -0.54834,0.0258 h -2e-5 l -0.0928,0.05026 0.002,-0.04048 c -0.0302,-0.279585 0.0654,-0.519286 0.24068,-0.632756 0.0657,-0.04255 0.14178,-0.06521 0.22349,-0.0651 z m 0.005,0.09712 c -0.0647,-1.84e-4 -0.12326,0.01878 -0.17423,0.05178 -0.11612,0.07516 -0.19774,0.234536 -0.20048,0.438224 0.23361,0.04511 0.39802,0.04297 0.49605,-0.01193 0.0966,-0.05409 0.14898,-0.161493 0.15523,-0.371273 -0.10017,-0.07462 -0.19342,-0.106554 -0.27657,-0.106801 z" /><path
       style="fill:#000000;fill-opacity:1;stroke:#a45be9;stroke-width:0;stroke-dasharray:none;paint-order:stroke fill markers"
       d="m 285.73745,4.3278853 c -0.0317,-0.115901 0.0858,-0.298048 0.2051,-0.291564 0.0722,0.008 0.0715,0.09245 0.0281,0.114615 -0.0959,0.04872 -0.14179,-0.0018 -0.23325,0.176949 z"
       id="path14-6-5-8" /></g></svg>
